# xmcd
#
# Track frame offsets:
#	150
#	35140
#	73217
#	98745
#	121945
#	141412
#	158782
#	169775
#	182937
#	200070
#	247885
#	278840
#
# Disc length: 4165 seconds
#
# Revision: 0
# Processed by: cddbd v1.4PL0 Copyright (c) Steve Scherf et al.
# Submitted via: EasyCDDAExtractor 4.6.9.1
#
DISCID=b510430c
DTITLE=Last Call - Boogie witcha'
DYEAR=1900
DGENRE=Blues
TTITLE0=I've been so blind
TTITLE1=Boogie witcha'
TTITLE2=Tell me
TTITLE3=Te-ni-nee-ni-nu
TTITLE4=Kay - El Cumbachero
TTITLE5=Rosalita
TTITLE6=Can't live that fast
TTITLE7=Everytime
TTITLE8=Long time ago
TTITLE9=Walk the line
TTITLE10=Aw
TTITLE11=Last Call
EXTD=
EXTT0=
EXTT1=
EXTT2=
EXTT3=
EXTT4=
EXTT5=
EXTT6=
EXTT7=
EXTT8=
EXTT9=
EXTT10=
EXTT11=
PLAYORDER=
